<?xml version="1.0" encoding="utf-8"?>
<!-- Generator: Adobe Illustrator 19.2.1, SVG Export Plug-In . SVG Version: 6.00 Build 0)  -->
<svg version="1.1" id="Layer_1" xmlns="http://www.w3.org/2000/svg" xmlns:xlink="http://www.w3.org/1999/xlink" x="0px" y="0px"
	 viewBox="0 0 90.032 150" style="enable-background:new 0 0 90.032 150;" xml:space="preserve">
<style type="text/css">
	.st0{fill:#895734;}
	.st1{fill:#FFFFFF;}
	.st2{fill:#CBDEAE;}
	.st3{fill:#869A42;}
	.st4{fill:#6D6E71;}
	.st5{fill:#B6B8BA;}
	.st6{fill:#414042;}
	.st7{fill:#C6C5C6;}
	.st8{fill:#333233;}
	.st9{fill:#D7AC79;}
	.st10{fill:#FFD425;}
	.st11{fill:#C18049;}
	.st12{fill:#C39A61;}
	.st13{fill:#FFBB28;}
	.st14{fill:#B16F3B;}
	.st15{fill:#474A4C;}
	.st16{fill:#E0E1E2;}
	.st17{fill:#CED0D1;}
	.st18{fill:#6DD093;}
	.st19{fill:#73D9FF;}
	.st20{fill:#B3A092;}
	.st21{fill:#73747A;}
	.st22{fill:#E58B7E;}
	.st23{fill:#A3D3E3;}
	.st24{fill:#EDC98B;}
	.st25{fill:#C2E0BB;}
	.st26{fill:#F1B2AD;}
	.st27{fill:#EDB86E;}
	.st28{fill:#F1999C;}
	.st29{fill:#9F755A;}
	.st30{fill:#D8A899;}
	.st31{fill:#F5AA40;}
	.st32{fill:#C88F7B;}
	.st33{fill:#EBECEC;}
	.st34{fill:#F19C1A;}
	.st35{fill:#594A42;}
	.st36{fill:#84949D;}
	.st37{fill:#CBCDCE;}
	.st38{fill:#B4CDFF;}
	.st39{fill:#9CCCA1;}
	.st40{fill:#86BB8B;}
	.st41{fill:#99B5E8;}
	.st42{fill:#4A5F68;}
	.st43{fill:#FFB455;}
	.st44{fill:#E99443;}
	.st45{fill:#FFC75D;}
	.st46{fill:#F12C23;}
	.st47{fill:#8E1E1A;}
	.st48{opacity:0.4;}
	.st49{fill:none;}
	.st50{fill:#BCD6FF;}
	.st51{fill:#475CCA;}
	.st52{fill:#958079;}
	.st53{fill:#D0945B;}
	.st54{fill:#7C6A64;}
	.st55{fill:#B3804D;}
	.st56{fill:#5E3D56;}
	.st57{fill:#4A4A4B;}
	.st58{fill:#FFBD56;}
	.st59{opacity:0.7;fill:#FFB13C;}
	.st60{fill:#312E32;}
	.st61{fill:#DFA74D;}
	.st62{fill:#F2F2F2;}
	.st63{fill:#2B4980;}
	.st64{fill:#4B5974;}
	.st65{fill:#647597;}
	.st66{fill:#A1DB93;}
	.st67{fill:#FFE98C;}
	.st68{fill:#393C5D;}
	.st69{fill:#73DEDF;}
	.st70{fill:#3CC9D1;}
	.st71{fill:#91E7E9;}
	.st72{fill:#231F3A;}
	.st73{fill:#739EAD;}
	.st74{fill:#A9BB83;}
	.st75{fill:#92AD6D;}
	.st76{fill:#6083A0;}
	.st77{fill:#FAA969;}
	.st78{fill:#E6965F;}
	.st79{fill:#F4909D;}
	.st80{fill:#E07A86;}
	.st81{fill:#344072;}
	.st82{fill:#BEE077;}
	.st83{fill:#9FC168;}
	.st84{fill:#84A64E;}
	.st85{fill:#8F7F6E;}
	.st86{fill:#75695A;}
	.st87{fill:#4F5942;}
</style>
<g>
	<ellipse class="st82" cx="45" cy="144.5" rx="37" ry="5.5"/>
	<path class="st83" d="M82.92,68.97c3.62,10.31,5.64,22.65,4.69,37.16c-1.03,15.88-12.14,37.74-42.82,37.79
		c-30.42-0.05-41.68-21.91-42.72-37.79c-0.95-14.47,1.07-26.8,4.68-37.09c9.48-27.01,29.94-39.98,36.69-40.87
		c0.37-0.06,0.76-0.09,1.27-0.17c1.08,0.08,1.09,0.24,1.44,0.28C52.9,29.2,73.46,42,82.92,68.97z M68,99.92c0-12.7-10.3-23-23-23
		s-23,10.3-23,23s10.3,23,23,23S68,112.62,68,99.92z"/>
	<g>
		<path class="st84" d="M33.539,119.857C26.646,115.884,22,108.446,22,99.92c0-7.723,3.813-14.553,9.654-18.724
			c0.828-4.329,1.936-8.381,3.26-12.156c5.768-16.433,15.596-27.659,23.932-34.14c-5.344-4.094-10.068-6.262-12.696-6.62
			c-0.35-0.04-0.36-0.2-1.44-0.28c-0.51,0.08-0.9,0.11-1.27,0.17c-6.75,0.89-27.21,13.86-36.69,40.87
			c-3.61,10.29-5.63,22.62-4.68,37.09c1.04,15.88,12.3,37.74,42.72,37.79c5.278-0.009,9.964-0.675,14.132-1.833
			C45.529,138.344,37.576,129.35,33.539,119.857z"/>
	</g>
	<path class="st85" d="M45,76.92c12.7,0,23,10.3,23,23s-10.3,23-23,23s-23-10.3-23-23S32.3,76.92,45,76.92z"/>
	<g>
		<path class="st86" d="M38,99.92c0-9.887,6.243-18.317,15-21.567c-2.492-0.925-5.187-1.433-8-1.433c-12.7,0-23,10.3-23,23
			s10.3,23,23,23c2.813,0,5.508-0.508,8-1.433C44.243,118.237,38,109.807,38,99.92z"/>
	</g>
	<path class="st87" d="M44.792,145.42c-28.777-0.047-42.943-19.718-44.219-39.192C-0.312,92.752,1.29,80.073,5.335,68.543l0,0
		c9.662-27.529,30.745-40.916,37.909-41.861c0.152-0.025,0.353-0.05,0.57-0.076c0.199-0.024,0.416-0.05,0.663-0.089
		c0.113-0.019,0.228-0.022,0.344-0.014c0.835,0.062,1.211,0.174,1.525,0.284c3.758,0.517,10.838,4.106,18.195,10.972
		c6.117,5.707,14.516,15.668,19.793,30.714c4.052,11.538,5.657,24.24,4.772,37.754c-0.619,9.538-4.51,18.92-10.676,25.739
		C70.495,140.745,58.863,145.397,44.792,145.42z M8.165,69.537c-3.909,11.146-5.456,23.424-4.598,36.495
		c0.884,13.492,10.561,36.339,41.226,36.389c37.87-0.062,41.079-32.669,41.32-36.387c0.858-13.109-0.692-25.411-4.608-36.566
		c-9.146-26.072-28.871-38.79-35.557-39.701c-0.256-0.029-0.458-0.1-0.592-0.146c-0.098-0.034-0.216-0.076-0.596-0.111
		c-0.213,0.031-0.406,0.054-0.588,0.076c-0.175,0.021-0.335,0.04-0.492,0.065C37.228,30.502,17.267,43.606,8.165,69.537
		L8.165,69.537z"/>
	<path class="st35" d="M45,124.42c-13.51,0-24.5-10.99-24.5-24.5s10.99-24.5,24.5-24.5s24.5,10.99,24.5,24.5S58.51,124.42,45,124.42
		z M45,78.42c-11.855,0-21.5,9.645-21.5,21.5s9.645,21.5,21.5,21.5s21.5-9.645,21.5-21.5S56.855,78.42,45,78.42z"/>
	
		<ellipse transform="matrix(0.8465 -0.5325 0.5325 0.8465 -41.0833 44.5207)" class="st1" cx="56.653" cy="93.495" rx="3.873" ry="8.231"/>
</g>
</svg>
