<?xml version="1.0" encoding="iso-8859-1"?>
<!-- Generator: Adobe Illustrator 19.0.0, SVG Export Plug-In . SVG Version: 6.00 Build 0)  -->
<svg version="1.1" id="Layer_1" xmlns="http://www.w3.org/2000/svg" xmlns:xlink="http://www.w3.org/1999/xlink" x="0px" y="0px"
	 viewBox="0 0 512 512" style="enable-background:new 0 0 512 512;" xml:space="preserve">
<path style="fill:#B27214;" d="M256.006,70.435c-4.864,0-8.805-3.942-8.805-8.805V8.805c0-4.862,3.941-8.805,8.805-8.805
	s8.805,3.942,8.805,8.805V61.63C264.81,66.493,260.868,70.435,256.006,70.435z"/>
<path style="fill:#9AD14B;" d="M385.55,221.322c21.647,41.698,34.549,88.609,34.549,126.574
	c0,90.628-73.465,164.104-164.093,164.104S91.902,438.523,91.902,347.896c0-37.965,12.902-84.875,34.549-126.574
	c13.101-25.228,24.453-51.301,33.868-78.125c17.198-49.024,53.578-97.413,95.687-97.413c42.097,0,78.478,48.39,95.687,97.413
	C361.097,170.021,372.449,196.094,385.55,221.322z"/>
<path style="fill:#B27214;" d="M256.006,244.355c42.426,0,76.811,67.971,76.811,110.397s-34.385,76.822-76.811,76.822
	s-76.822-34.396-76.822-76.822S213.58,244.355,256.006,244.355z"/>
<path style="fill:#995C0D;" d="M219.043,354.751c0-35.533,24.128-88.973,56.891-105.405c-6.357-3.188-13.035-4.992-19.93-4.992
	c-42.426,0-76.822,67.971-76.822,110.397s34.396,76.822,76.822,76.822c6.896,0,13.572-0.923,19.93-2.626
	C243.174,420.167,219.043,390.282,219.043,354.751z"/>
<g>
</g>
<g>
</g>
<g>
</g>
<g>
</g>
<g>
</g>
<g>
</g>
<g>
</g>
<g>
</g>
<g>
</g>
<g>
</g>
<g>
</g>
<g>
</g>
<g>
</g>
<g>
</g>
<g>
</g>
</svg>
